<?xml version="1.0" encoding="utf-8"?>
<!-- Generator: Adobe Illustrator 16.0.0, SVG Export Plug-In . SVG Version: 6.00 Build 0)  -->
<!DOCTYPE svg PUBLIC "-//W3C//DTD SVG 1.1//EN" "http://www.w3.org/Graphics/SVG/1.1/DTD/svg11.dtd">
<svg version="1.1"
	 id="svg3278" xmlns:dc="http://purl.org/dc/elements/1.1/" xmlns:cc="http://creativecommons.org/ns#" xmlns:rdf="http://www.w3.org/1999/02/22-rdf-syntax-ns#" xmlns:svg="http://www.w3.org/2000/svg" xmlns:sodipodi="http://sodipodi.sourceforge.net/DTD/sodipodi-0.dtd" xmlns:inkscape="http://www.inkscape.org/namespaces/inkscape" sodipodi:docname="Android Contacts big.svg" inkscape:version="0.48.4 r9939"
	 xmlns="http://www.w3.org/2000/svg" xmlns:xlink="http://www.w3.org/1999/xlink" x="0px" y="0px" width="72px" height="72px"
	 viewBox="0 0 72 72" enable-background="new 0 0 72 72" xml:space="preserve">
<sodipodi:namedview  fit-margin-left="0" fit-margin-top="0" showgrid="false" inkscape:cy="29.062301" inkscape:cx="-493.54039" inkscape:zoom="0.35" borderopacity="1.0" bordercolor="#666666" pagecolor="#ffffff" id="base" inkscape:window-maximized="1" inkscape:window-y="-8" inkscape:window-x="-8" inkscape:window-height="1018" inkscape:window-width="1920" fit-margin-bottom="0" inkscape:document-units="px" fit-margin-right="0" inkscape:pageshadow="2" inkscape:current-layer="layer1" inkscape:pageopacity="0.0">
	</sodipodi:namedview>
<g id="layer1" transform="translate(-868.5404,-489.42449)" inkscape:label="Layer 1" inkscape:groupmode="layer">
	<g id="g21412" transform="translate(1090.8104,-471.0655)" inkscape:export-xdpi="90" inkscape:export-ydpi="90">
		
			<linearGradient id="SVGID_1_" gradientUnits="userSpaceOnUse" x1="-632.8994" y1="114.2747" x2="-632.8994" y2="146.1751" gradientTransform="matrix(1.4972 0 0 -1.4972 761.3079 1191.3237)">
			<stop  offset="0" style="stop-color:#072E97"/>
			<stop  offset="1" style="stop-color:#1588E2"/>
		</linearGradient>
		<path fill="url(#SVGID_1_)" d="M-165.05,972.4h-38.74c-0.523,0-0.936,0.412-0.936,0.936v5.521h-2.012
			c-0.943,0-1.685,0.789-1.685,1.731c0,0.707,0.418,1.287,1.029,1.544c0.3,0.482,0.792,0.796,1.403,0.796h1.263v6.363h-2.012
			c-0.942,0-1.684,0.742-1.684,1.685c0,0.707,0.418,1.286,1.029,1.544c0.3,0.482,0.792,0.795,1.403,0.795h1.263v6.364h-2.012
			c-0.942,0-1.685,0.741-1.685,1.684c0,0.707,0.418,1.334,1.029,1.592c0.301,0.475,0.797,0.795,1.404,0.795h1.263v6.316h-2.012
			c-0.943,0-1.685,0.741-1.685,1.684c0,0.707,0.418,1.334,1.029,1.592c0.301,0.475,0.797,0.795,1.404,0.795h1.263v5.521
			c0,0.524,0.412,0.937,0.936,0.937h38.74c0.523,0,0.936-0.412,0.936-0.937v-46.319C-164.115,972.812-164.527,972.4-165.05,972.4z
			 M-187.75,985.888c0.794-0.75,1.897-1.23,3.311-1.23c0.004,0,0.008,0,0.013,0c0.002,0,0.004,0,0.006,0
			c0.006,0,0.012,0.002,0.019,0.002c1.045,0.006,1.916,0.278,2.62,0.726c1.493,0.871,2.508,2.437,2.508,4.231
			c0,1.41-0.627,2.667-1.617,3.561c-0.805,0.89-1.985,1.479-3.548,1.479c-1.826,0-3.134-0.803-3.926-1.952
			c-0.712-0.844-1.155-1.909-1.155-3.088C-189.52,988.127-188.827,986.8-187.75,985.888z M-174.034,1008.707h-20.727v-2.668
			c0-4.975,4.008-8.982,8.983-8.982h2.761c4.975,0,8.982,4.008,8.982,8.982V1008.707z"/>
	</g>
</g>
</svg>
